<svg xmlns="http://www.w3.org/2000/svg" fill="none" viewBox="0 0 227 64">
  <g id="logo">
    <path fill="#fff" d="M0 0h227v64H0z"/>
    <g id="paint-brush-artist-svgrepo-com 1">
      <path id="Vector" fill="#FFD05B" d="M33.5 8a24.5 24.5 0 110 49 24.5 24.5 0 010-49z"/>
      <path id="Vector 1" fill="#000" stroke="#000" stroke-width="2" d="M32.5 11L13 29.3h5.5V49h9.9V35.9c0-6.6 10.6-8.3 10.6 0V49h9.2V29.3H54L32.5 11z"/>
      <path id="Vector_2" fill="#324A5E" d="M36.4 29.8l4.1 4c.3.2.3.6 0 1L39 36.2c-.6.7-.6 1.7.1 2.3a48.4 48.4 0 015 4.4c.5.6.4 1.4-.1 2-.6.6-1.4.7-2 .3a48.4 48.4 0 01-4.6-4.8c-.6-.7-1.7-.7-2.4 0L33.5 42c-.2.3-.7.3-1 0l-4-3.9 7.9-8.3z"/>
      <path id="Vector_3" fill="#fff" d="M28.4 38.1l8-8.3 3.2 3-8 8.4-3.2-3z"/>
      <g id="Group" fill="#E6E9EE">
        <path id="Vector_4" d="M29.2 38.3l7.6-8 .4.3-7.6 8-.4-.3z"/>
        <path id="Vector_5" d="M31.1 40l7.6-7.9.4.4-7.6 8-.4-.4z"/>
      </g>
      <path id="Vector_6" fill="#FF7058" d="M28.9 37.7l-6.7-5.5 2-2.4 4 3-3.5-3.6 6-6 5.9 6.4-7.7 8z"/>
      <path id="Vector_7" fill="#FD8469" d="M43.6 44a.9.9 0 11-1.3-1.2.9.9 0 011.3 1.3z"/>
    </g>
    <path  id="BEAUTIFUL HOMES" fill="#000" d="M68.9 31.1c-.4.4-1 .7-1.7.8-.7.2-1.5.3-2.5.3s-2 0-3.2-.3V20.4a19 19 0 013-.3c.8 0 1.5 0 2 .2.6.2 1 .4 1.3.7.7.5 1 1.2 1 2s-.3 1.5-.9 2a3 3 0 011.7 1.3c.4.6.5 1.2.5 1.9s0 1.2-.3 1.7a3 3 0 01-1 1.2zm-5-6.4h1.8l.5-.4c.2-.3.3-.6.3-1 0-1-.5-1.4-1.5-1.4h-1.2v2.8zm1.2 2h-1.3v3.5a5.2 5.2 0 002.5 0c.4-.1.7-.3.9-.5.5-.4.7-.9.7-1.5 0-1-1-1.6-2.8-1.6zM78 29.8l.8-.1V32H72V20.2h1.2a47 47 0 005.3 0 17.4 17.4 0 000 2.3h-.1a5 5 0 00-1.3 0h-2.8v2.2h2.1l1.2-.1v2.2h-3.3v3H78zm4 2.2l-1.8-.1h-.6l3.8-10.7.2-.8v-.2a26.3 26.3 0 002.5 0v.1c0 .1 0 .4.3.9L90.2 32h-.4-2.3l-.8-2.5h-4L82 32zm4.1-4.7l-1.3-4.1-1.3 4H86zm12.3-7.1H100.7v7.2c0 1.5-.5 2.6-1.4 3.5-.8.8-1.8 1.2-3 1.2a5 5 0 01-3.4-1c-1-.8-1.4-2-1.4-3.5v-7.4a22.9 22.9 0 002.5 0v7.5c0 .8.2 1.3.6 1.7.5.4 1 .6 1.6.6 1 0 1.6-.5 1.9-1.4l.2-1.3v-7.1zm9.5 11.8l-2.1-.1h-.3v-9.7h-2.7l-.2.2v-2.3l1.6.1h6.4l.2-.2v2.2a7 7 0 00-1.6 0h-1.3V32zm5.1-11.8h2.4V32H113V20.3zm11.9 6.6H121V32h-2.4V20.2h1.2a53 53 0 005.6 0 17.6 17.6 0 00-.1 2.3 5 5 0 00-1.3 0h-3v2.3h3.8v2.1zm9.5-6.6H136.7v7.2c0 1.5-.4 2.6-1.3 3.5-.8.8-1.9 1.2-3.1 1.2a5 5 0 01-3.3-1c-1-.8-1.5-2-1.5-3.5v-7.4a22.8 22.8 0 002.5 0v7.5c0 .8.2 1.3.7 1.7.4.4 1 .6 1.5.6 1 0 1.6-.5 2-1.4v-8.4zm7 11.7h-1.7V20.4h2.5v9.6h3V32l-3-.1h-.7zm14.2 0h-2.3V20.3H155.5v4.6h4.2v-4.6a23.6 23.6 0 002.2 0V32l-1.6-.1h-.7v-5h-4v5zm10.6-1.4a5.6 5.6 0 01-1.7-4.2A6.1 6.1 0 01166 22a5.8 5.8 0 014.4-2c1.6 0 3 .6 4 1.6 1.3 1.1 1.9 2.6 1.9 4.4a6 6 0 01-4.5 6 7 7 0 01-1.8.2 5.7 5.7 0 01-4-1.6zm.7-4.3l.3 1.5c.2.5.4.9.7 1.2.7.7 1.6 1 2.7 1 1 0 1.8-.3 2.5-1a4 4 0 001-2.8c0-1-.4-2-1-2.8a3.3 3.3 0 00-2.7-1.2c-1 0-2 .4-2.6 1.3-.6.7-.9 1.7-.9 2.8zm14.2 5.8l-1.6-.1h-.7V20.3a20 20 0 002.2 0l3 5 2.8-5h2.4V32h-2.3v-7.8l-3 5.1-2.8-4.7V32zm17-2.2l.8-.1V32h-6.6V20.2h1.1a47.1 47.1 0 005.3 0 17.3 17.3 0 000 2.3 5 5 0 00-1.4 0h-2.7v2.2h2l1.2-.1v2.2h-3.2v3h3.6zm10.2-9l-.1 2.6c-.5-.6-1.3-1-2.3-1.2a5 5 0 00-1.7 0l-.6.2c-.3.2-.4.5-.4.8 0 .5 0 .8.4 1 .3.3 1 .5 1.7.6l2 .4c.5.2.9.5 1.2.8.6.5.9 1.3.9 2.2 0 1.3-.5 2.3-1.5 3-.8.6-1.8 1-3.1 1-1 0-2-.3-3-.7-.4 0-.7-.2-.9-.4l.1-3c.8 1.3 2 2 3.6 2 1.2 0 2-.4 2.3-1 .2-.1.2-.3.2-.6V28a1 1 0 00-.5-.4 4 4 0 00-1.7-.4 7 7 0 01-2-.5c-.4-.2-.9-.4-1.2-.7-.5-.6-.8-1.4-.8-2.4s.4-1.9 1.1-2.5c.8-.7 1.8-1 3-1 1.3 0 2.4.3 3.3.9z"/>
    
    <path id="INTERIOR DESIGNER" fill="#F01919" d="M61 38.5H62.3V45H61v-6.5zm3.2 6.5v-6.4h1l2.6 4v-3.8-.3H69V45h-1l-2.6-4v4h-1.3zm9 0h-1.4v-5.4h-1.5v.1h-.1v-1.2h4.4l.2-.1v1.2a4 4 0 00-.9 0h-.7V45zm5.9-1.2h.4V45h-3.7v-6.5h.7a26.1 26.1 0 003 0 9.7 9.7 0 00-.1 1.2H77v1.2H78.9V42a6 6 0 00-.6 0h-1.2v1.7h2zm3.8-1.3a4.7 4.7 0 01-.8 0V45h-1.3v-6.5l1.7-.1c1 0 1.6.2 2 .5.5.3.7.8.7 1.5 0 .6-.2 1-.6 1.4l-.5.3 1 2.1.5.8H84l-1.2-2.5zm-.3-3h-.5v2a4 4 0 001.1 0l.4-.3c.2-.1.4-.4.4-.7 0-.4-.2-.6-.4-.8a2 2 0 00-1-.2zm4.2-1h1.4V45h-1.4v-6.5zm3.7 5.7a3.1 3.1 0 01-1-2.3c0-.5.2-1 .3-1.3l.7-1.2a3.2 3.2 0 012.5-1c.9 0 1.6.3 2.3.8.6.6 1 1.5 1 2.5a3.3 3.3 0 01-2.6 3.3 4 4 0 01-1 .1c-.3 0-.7 0-1.1-.2-.4-.2-.8-.4-1-.7zm.4-2.4c0 .3 0 .6.2.9 0 .2.2.4.4.6.4.4.9.6 1.5.6s1-.2 1.4-.6c.3-.3.5-.9.5-1.5s-.2-1.1-.5-1.6c-.4-.4-.9-.6-1.5-.6s-1.1.2-1.5.7c-.3.4-.5.9-.5 1.5zm8.7.7a4.7 4.7 0 01-.8 0V45h-1.3v-6.5l1.7-.1c.9 0 1.6.2 2 .5.5.3.7.8.7 1.5 0 .6-.2 1-.6 1.4l-.5.3 1 2.1.5.8h-1.6l-1-2.5zm-.3-3h-.5v2a4 4 0 001.1 0l.4-.3c.2-.1.3-.4.3-.7 0-.4 0-.6-.3-.8a2 2 0 00-1-.2zm9 5.6l-1.5-.1v-6.5l1.4-.1c.6 0 1.1 0 1.6.2l1.1.7c.7.6 1 1.4 1 2.4 0 1.1-.4 2-1 2.6-.7.6-1.6.8-2.7.8zM108 44H109.3l.7-.4c.4-.4.6-1 .6-1.6 0-1.2-.5-2-1.3-2.2l-1-.1h-.1-.2v4.3zm8.6 0l.4-.1V45h-3.7v-6.5h.7a26.1 26.1 0 003 0 9.6 9.6 0 00-.1 1.2h-2.3v1.2H116.4V42a6 6 0 00-.6 0h-1.2v1.7h2zm5.7-5l-.1 1.4c-.3-.3-.7-.6-1.3-.7a2.8 2.8 0 00-1 0 1 1 0 00-.3.1l-.2.5c0 .2 0 .4.2.5.2.2.5.3 1 .4l1 .2c.3.1.6.2.7.4.4.3.5.7.5 1.3a2 2 0 01-.8 1.6 3 3 0 01-1.7.5c-.6 0-1.2 0-1.7-.3l-.5-.2v-1.7c.5.7 1.2 1 2 1 .7 0 1.2-.1 1.4-.4V43v-.3s0-.2-.2-.2c-.2-.2-.5-.2-1-.3l-1-.2a2 2 0 01-.7-.5c-.3-.3-.5-.7-.5-1.3 0-.5.2-1 .6-1.4.4-.3 1-.5 1.7-.5s1.3.1 1.9.5zm2-.4h1.4V45h-1.4v-6.5zM133 41l-.1.8v1.5c0 .5-.3.9-.8 1.2a3 3 0 01-1.8.5c-1 0-1.7-.3-2.3-1-.6-.5-.9-1.3-.9-2.2 0-1 .3-1.8.9-2.4.6-.8 1.5-1.1 2.7-1.1.7 0 1.3.1 1.8.4l-.1 1.5-.7-.5a2.8 2.8 0 00-2 0c-.2 0-.4.2-.6.4-.4.5-.6 1-.6 1.7 0 .6.2 1 .5 1.5.4.3.8.5 1.3.5.6 0 1-.2 1.2-.5l.1-.3v-.8h-1.2v-1.2h2.5zm1.3 3.9v-6.4h1l2.6 4v-3.8-.3h1.3V45h-1l-2.6-4v4h-1.3zm9.9-1.2h.4V45h-3.7v-6.5h.6a26 26 0 003 0 9.6 9.6 0 000 1.2H142v1.2h1.8V42H142v1.7h2zm3.8-1.3a4.7 4.7 0 01-.8 0V45h-1.3v-6.5l1.7-.1c.9 0 1.6.2 2 .5.5.3.7.8.7 1.5 0 .6-.2 1-.6 1.4l-.5.3 1 2.1.5.8H149l-1-2.5zm-.3-3h-.5v2a4 4 0 001.1 0l.4-.3c.2-.1.3-.4.3-.7 0-.4 0-.6-.3-.8a2 2 0 00-1-.2z"/>
  </g>
  
</svg>
